# xmcd
#
# Track frame offsets: 
#        183
#        13538
#        27303
#        39273
#        52823
#        65975
#        80075
#        91435
#        109410
#        124875
#        137733
#        155488
#        169460
#        182623
#        195795
#
# Disc length: 2901 seconds
#
# Revision: 3
# Processed by: cddbd v1.5.2PL0 Copyright (c) Steve Scherf et al.
# Submitted via: ExactAudioCopy v1.3
#
DISCID=ca0b530f
DTITLE=Truck Stop - Arizona
DYEAR=1990
DGENRE=Country
TTITLE0=Arizona - Arizona
TTITLE1=Tausend Meilen
TTITLE2=Immer in der Küche
TTITLE3=Es ist kalt
TTITLE4=Der Trabbi und der Truck
TTITLE5=Papa werden ist so leicht
TTITLE6=Kein Bier, kein Wein, kein Nikotin
TTITLE7=Kleine Cowboys werden groß
TTITLE8=Square Dance-Darling
TTITLE9=Laß doch mal den Cowboy ran
TTITLE10=Morgen werden wir uns nicht mehr sehn
TTITLE11=Du brauchst'n Ofen
TTITLE12=Kleine Dampflok
TTITLE13=Ohne dich steh ich im Regen
TTITLE14=Fluss im Abendwind
EXTD=aufgenommen im studio Maschen im März 1990 YEAR: 1990
EXTT0=
EXTT1=
EXTT2=
EXTT3=
EXTT4=
EXTT5=
EXTT6=
EXTT7=
EXTT8=
EXTT9=
EXTT10=
EXTT11=
EXTT12=
EXTT13=
EXTT14=
PLAYORDER=
